<?xml version="1.0" encoding="iso-8859-1"?>
<!-- Generator: Adobe Illustrator 16.0.0, SVG Export Plug-In . SVG Version: 6.00 Build 0)  -->
<!DOCTYPE svg PUBLIC "-//W3C//DTD SVG 1.1//EN" "http://www.w3.org/Graphics/SVG/1.1/DTD/svg11.dtd">
<!-- License: CC0. Made by SVG Repo: https://www.svgrepo.com/svg/76686/butterfly -->
<svg version="1.1" id="Capa_1" xmlns="http://www.w3.org/2000/svg" xmlns:xlink="http://www.w3.org/1999/xlink" x="0px" y="0px"
	 width="94.973px" height="94.973px" viewBox="0 0 94.973 94.973" style="enable-background:new 0 0 94.973 94.973;"
	 xml:space="preserve">
<g>
	<path d="M94.074,14.214c-8.2-8.061-24.021-5.243-35.352,6.286c-1.057,1.078-2.016,2.197-2.915,3.339
		c0.021-0.392-0.045-0.792-0.182-1.155c-0.257-0.695-0.756-1.189-1.396-1.41c-0.855-0.297-1.604-0.277-2.207,0.067
		c-0.796,0.46-1.377,1.475-1.77,3.088c-0.367,1.468-2.26,7.159-2.782,11.002c-0.525-3.843-2.414-9.534-2.775-11.002
		c-0.407-1.613-0.979-2.628-1.777-3.088c-0.606-0.344-1.349-0.364-2.204-0.067c-0.642,0.221-1.138,0.715-1.401,1.41
		c-0.13,0.353-0.197,0.743-0.178,1.124c-0.895-1.131-1.841-2.25-2.889-3.308C24.917,8.972,9.095,6.153,0.899,14.214
		c-2.337,2.288,0,29.68,5.666,35.45c2.944,2.991,5.814,4.261,8.695,4.657c-4.781,2.006-7.549,6.208-4.5,15.489
		c5.313,16.18,9.048,15.95,18.966,15.348c8.172-0.499,14.489-10.246,16.164-18.739c0.264,1.995,0.769,3.312,1.562,3.312
		c0.824,0,1.34-1.406,1.598-3.515c1.605,8.545,7.955,18.442,16.192,18.938c9.917,0.603,13.654,0.831,18.966-15.349
		c3.049-9.277,0.28-13.483-4.5-15.488c2.881-0.397,5.756-1.67,8.695-4.658C94.074,43.895,96.411,16.505,94.074,14.214z
		 M43.154,54.544c0.736-0.924,1.332-1.944,1.833-3.005c0.199,2.115,0.609,3.812,0.931,5.438c-0.074,0.359-0.128,0.805-0.175,1.294
		C45.211,56.663,44.324,55.445,43.154,54.544z M46.177,38.354c-0.836-4.1-2.662-8.333-5.393-12.325
		c0.32,0.092,0.659,0.137,0.979,0.049c0.823-0.185,1.429-1.132,1.282-2.039c0-0.024-0.081-0.568-0.465-0.666
		c-0.344-0.098-0.799,0.217-1.35,0.926l0.14,0.13c0.603-0.771,0.95-0.901,1.136-0.859c0.01,0,0.017,0,0.027,0.003
		c0.26,0.074,0.331,0.496,0.331,0.508c0.118,0.802-0.411,1.643-1.14,1.803c-0.368,0.1-0.769,0.046-1.121-0.104
		c-0.397-0.565-0.802-1.126-1.233-1.682c-0.077-0.441-0.05-0.909,0.114-1.338c0.236-0.628,0.695-1.087,1.28-1.29
		c0.802-0.284,1.499-0.26,2.057,0.066c0.75,0.424,1.297,1.395,1.686,2.964c0.371,1.536,2.527,7.938,2.873,11.673
		c-0.024,0.267-0.048,0.515-0.051,0.758l0,0C46.913,36.92,46.525,37.44,46.177,38.354z M47.611,36.996
		c-0.012-0.26-0.026-0.534-0.06-0.832c0.365-3.735,2.505-10.142,2.876-11.673c0.39-1.565,0.939-2.539,1.686-2.963
		c0.562-0.327,1.251-0.351,2.062-0.067c0.585,0.207,1.041,0.663,1.276,1.289c0.165,0.445,0.195,0.929,0.113,1.39
		c-0.421,0.532-0.805,1.075-1.191,1.625c-0.366,0.161-0.78,0.221-1.159,0.114c-0.736-0.161-1.262-0.997-1.132-1.803
		c0-0.012,0.063-0.435,0.329-0.508c0-0.003,0.012-0.003,0.019-0.003c0.191-0.042,0.53,0.087,1.133,0.857l0.137-0.128
		c-0.537-0.708-0.999-1.023-1.343-0.926c-0.384,0.098-0.468,0.646-0.468,0.666c-0.144,0.907,0.455,1.853,1.283,2.039
		c0.339,0.087,0.678,0.046,1.027-0.056c-2.873,4.184-4.741,8.649-5.51,12.941C48.367,37.913,48.007,37.22,47.611,36.996z
		 M49.117,58.624c-0.067-0.551-0.144-1.074-0.272-1.533c0.298-1.704,0.7-3.812,0.864-6.136c0.548,1.287,1.244,2.495,2.11,3.587
		C50.558,55.513,49.632,56.844,49.117,58.624z"/>
</g>
</svg>
