<?xml version="1.0" encoding="iso-8859-1"?>
<!-- Generator: Adobe Illustrator 19.0.0, SVG Export Plug-In . SVG Version: 6.00 Build 0)  -->
<!-- License: CC0. Made by SVG Repo: https://www.svgrepo.com/svg/193318/diamond-jewelry -->
<svg version="1.1" id="Layer_1" xmlns="http://www.w3.org/2000/svg" xmlns:xlink="http://www.w3.org/1999/xlink" x="0px" y="0px"
	 viewBox="0 0 512 512" style="enable-background:new 0 0 512 512;" xml:space="preserve">
<g>
	<g>
		<path d="M422.537,161.041C395.529,63.215,330.138,0,255.94,0c-25.011,0-49.306,7.219-72.209,21.444
			c-88.67,55.1-130.082,199.842-94.268,329.515C116.471,448.785,181.871,512,256.06,512c25.011,0,49.306-7.219,72.209-21.453
			C416.939,435.456,458.351,290.714,422.537,161.041z M133.888,116.668l-1.451,47.488l-14.344-8.909
			C122.496,141.679,127.77,128.759,133.888,116.668z M111.002,180.966l16.026,9.958l-23.526,38.716
			C104.789,212.984,107.375,196.702,111.002,180.966z M103.569,282.479l23.458,38.596l-16.009,9.95
			C107.324,314.991,104.832,298.743,103.569,282.479z M118.332,356.599l14.097-8.755l1.434,46.925
			C127.94,383.027,122.769,370.278,118.332,356.599z M140.092,293.299L117.419,256l22.664-37.299L150.391,256L140.092,293.299z
			 M325.786,51.319c10.163,7.791,19.746,17.203,28.57,28.254l-35.686-2.466L325.786,51.319z M348.339,304.085l4.241,15.352
			l-10.24,6.366L348.339,304.085z M342.34,186.206l10.24,6.366l-4.241,15.352L342.34,186.206z M353.928,348.732l-1.783,58.172
			l-32.836,2.278l12.979-47.002L353.928,348.732z M332.288,149.828l-12.979-47.002l32.845,2.27l1.783,58.189L332.288,149.828z
			 M303.172,37.094l-6.298,22.784l-23.671-32.384C283.426,29.244,293.444,32.375,303.172,37.094z M300.228,129.903l-19.994-12.425
			l14.14-8.781L300.228,129.903z M256,47.343l27.691,37.879L256,102.426l-27.691-17.203L256,47.343z M231.765,117.487
			l-19.994,12.425l5.854-21.214L231.765,117.487z M239.061,27.127l-23.936,32.751l-6.323-22.895
			C218.812,32.111,228.932,28.826,239.061,27.127z M186.138,51.089l7.185,26.027l-36.096,2.492
			C165.939,68.634,175.65,59.119,186.138,51.089z M179.712,362.18l12.979,47.002l-32.836-2.278l-1.783-58.172L179.712,362.18z
			 M159.42,319.428l4.241-15.352l5.999,21.717L159.42,319.428z M163.661,207.915l-4.241-15.351l10.24-6.366L163.661,207.915z
			 M158.071,163.277l1.783-58.189l32.845-2.27l-12.988,47.01L158.071,163.277z M186.206,460.672
			c-10.155-7.782-19.738-17.195-28.57-28.254l35.686,2.475L186.206,460.672z M208.836,474.897l6.289-22.775l23.671,32.375
			C228.574,482.748,218.556,479.616,208.836,474.897z M211.772,382.097l19.994,12.424l-14.14,8.781L211.772,382.097z M256,464.666
			l-27.691-37.879L256,409.583l27.691,17.203L256,464.666z M280.235,394.513l19.994-12.425l-5.854,21.214L280.235,394.513z
			 M272.939,484.864l23.936-32.742l6.323,22.886C293.188,479.881,283.068,483.166,272.939,484.864z M256,379.452l-54.281-33.732
			L176.939,256l24.781-89.719L256,132.548l54.281,33.732L335.061,256l-24.781,89.719L256,379.452z M325.862,460.911l-7.185-26.018
			l36.104-2.5C346.061,443.366,336.35,452.881,325.862,460.911z M408.431,229.53l-23.458-38.605l16.009-9.95
			C404.676,197.009,407.177,213.257,408.431,229.53z M393.668,155.401l-14.097,8.755l-1.434-46.933
			C384.06,128.964,389.231,141.722,393.668,155.401z M361.608,256l10.3-37.299L394.581,256l-22.664,37.299L361.608,256z
			 M378.112,395.332l1.451-47.488l14.345,8.909C389.504,370.321,384.23,383.232,378.112,395.332z M400.998,331.034l-16.026-9.958
			l23.526-38.716C407.211,299.017,404.625,315.298,400.998,331.034z"/>
	</g>
</g>
</svg>
